# xmcd
#
# Track frame offsets: 
#        150
#        7020
#        33471
#        52994
#        70740
#        75647
#        104102
#        112645
#        136571
#        142490
#        176159
#        182505
#        202189
#        208352
#        230228
#        238790
#        255383
#        266429
#        273795
#        306669
#        312331
#
# Disc length: 4441 seconds
#
# Revision: 0
# Processed by: cddbd v1.5.2PL0 Copyright (c) Steve Scherf et al.
# Submitted via: ExactAudioCopy v0.99pb4
#
DISCID=3c115715
DTITLE=Hank Williams - Mother's Best [CD6]
DYEAR=1951
DGENRE=Country
TTITLE0=Mother's Best 7-A2
TTITLE1=Just When I Needed You
TTITLE2=I Can't Tell My Heart That (Johnnie and Jack)
TTITLE3=Farther Along
TTITLE4=Mother's Best 7- B1
TTITLE5=Move It On Over
TTITLE6=Darktown Strutter's Ball
TTITLE7=Thy Burdens Are Greater Than Mine
TTITLE8=Mother's Best 7-B2
TTITLE9=There's Nothin' As Sweet As My Baby
TTITLE10=Turkey In The Straw
TTITLE11=Wait For The Light To Shine
TTITLE12=Mother's Best 8-A1
TTITLE13=I Can't Help It
TTITLE14=Panhandle Rag
TTITLE15=Gathering Flowers For The Masters' Bouquet
TTITLE16=Bill Cheatam
TTITLE17=Mother's Best 8-A2
TTITLE18=Where The Old Red River Flows
TTITLE19=Blue Steel Blues
TTITLE20=Thirty Pieces Of Silver
EXTD=
EXTT0=
EXTT1=
EXTT2=
EXTT3=
EXTT4=
EXTT5=
EXTT6=
EXTT7=
EXTT8=
EXTT9=
EXTT10=
EXTT11=
EXTT12=
EXTT13=
EXTT14=
EXTT15=
EXTT16=
EXTT17=
EXTT18=
EXTT19=
EXTT20=
PLAYORDER=
